<svg id="_1" data-name="1" xmlns="http://www.w3.org/2000/svg" viewBox="0 0 512 342"><defs><style>.cls-1,.cls-2{fill:#fff;}.cls-1{fill-rule:evenodd;}</style></defs><title>tblBorder</title><path class="cls-1" d="M0,0V342H512V0H0ZM487.51058,205.1738a12.8999,12.8999,0,0,1-4.8975,12.7663c2.603,5.182,2.79492,11.1987-.6919,16.3153a16.1728,16.1728,0,0,1-12.0157,6.904,20.69274,20.69274,0,0,1-14.055-4.3492c-4.3019.9151-8.7342,0.4169-12.3698-2.3713-3.9588-3.036-5.7194-7.7968-5.99068-12.6246-3.33352-.3128-7.21532-0.3965-9.88082.523a4.13612,4.13612,0,0,0-2.8881,2.659,11.15494,11.15494,0,0,0-.4273,1.4661,33.04069,33.04069,0,0,1-1.5943,6.2468l-0.9982,2.264-2.4738-.0459c-6.3013-.1169-11.731-2.4702-14.9406-8.0731a22.80576,22.80576,0,0,1-2.2123-5.6675c-0.066-.2538-0.1307-0.5471-0.1969-0.8553-10.2496-.4747-20.4914-1.0147-30.7468-1.4267q-27.29325-1.0965-54.6092-1.3616c-47.8505-.4154-96.15369,1.1981-143.72469,6.5052-3.53631.3946-6.65231,1.9252-8.38841,5.1381a10.86656,10.86656,0,0,0-.7538,8.3182l1.4419,4.3576-4.562.5067c-4.5702.5077-9.6601,0.1285-13.5741-2.5182a11.48581,11.48581,0,0,1-3.7042-4.0423c-22.0178,7.3189-46.7545,10.7377-69.0677,3.1088a66.87343,66.87343,0,0,1-39.6272-35.6392c-9.4068-20.2347-9.2829-44.5206-.1799-64.8356,10.3777-23.1603,30.5723-37.8575,55.4306-42.1825,21.9627-3.8213,42.3495,2.7465,59.9602,15.6689l228.58461-.0716c0.49258-4.8533,2.52368-9.5241,6.88528-12.176,5.5764-3.3906,12.0705-1.8052,17.3064,1.3789,15.407-4.4156,31.71332-3.1639,45.8308,4.7877,18.419,10.3744,28.6147,29.4323,30.2892,50.1504l0.0114,0.1414,0.0007,0.1418c0.00522,1.171-.0239,2.3409-0.0205,3.5108a6.45707,6.45707,0,0,0,.048,1.0482,18.39447,18.39447,0,0,0,1.8172,2.0382c11.0474,11.7243,11.2399,22.2794,4.1443,35.0912A19.67456,19.67456,0,0,1,487.51058,205.1738Z"/><path class="cls-1" d="M81.733,233.0791c-59.431-14.7703-63.80881-103.3288-2.56351-125.4682a69.63229,69.63229,0,0,1,39.4349-2.5307c8.2974,1.7956,21.4574,6.4814,29.0474,15.0019L390.12948,120.17c3.8632,0.0172,11.5973-1.7166,3.5789-2.5105-15.8729-2.1083-6.42138-18.8827,3.7969-11.9195-4.2322,1.5134-7.7752,7.4615,1.1693,7.8123,25.8611-18.0955,51.39742-2.9052,63.5008,16.2397,13.9071,21.9972,10.9174,64.8894-25.10938,75.093,28.00688-6.9261,34.77128-18.4106,36.51388-37.204,8.5955,7.3484,13.176,23.4667-3.338,32.6425,12.9252-1.774,11.3602,18.2318-2.3226,12.8422,2.873,2.2163,7.0632,2.7332,8.0732,13.502-1.135,12.2874-18.1262,7.4504-15.0809-1.581,1.5451-2.1025,3.0796-.8372,5.0875.4877,3.52092-6.1843-5.9268-14.094-12.4892-9.8081,0.81412,2.2297.9116,1.3837,2.08412,2.868,2.533,3.2053,1.92238,10.7747-3.07892,11.1382-7.1974,2.2268-11.3945-10.4553-1.9827-10.3205-2.2762,2.7629-1.4186,3.711,1.2914,3.5873,5.5776-6.1082-9.6566-8.9814-17.8252-8.8466-20.8788.3448-14.7912,8.8362-18.6027,13.1438-9.2914-3.5993-7.8682-14.914-3.2503-15.3311-29.8737-1.1923-72.6062-1.1461-118.4992-1.4143-45.723-.2673-95.9502,1.5506-123.3862,5.091-13.8147,3.4966-14.75319,12.1407-13.7995,19.3609,0.0998,0.7596-5.6096.458-7.234-2.6245-1.8623-3.533-.2119-8.192-1.017-7.8606-21.965,9.0388-39.489,15.2283-66.47669,8.5212h0ZM412.21878,127.5384c-3.7504-13.4618,7.95822-8.5466,9.1115-7.4995,7.683,6.9782-2.9691,19.8502-15.89428,15.6484-4.40892-3.1234-5.75292-4.2666-6.99082-10.7636l-246.01549-.2301c2.2914,5.6979,17.4319,21.5711,13.7691,60.7956,12.4884-2.55,3.4188,15.1933-.0602,4.7514-6.1394,2.3377-3.78859,13.2242,4.9921,14.9594,7.7189,1.5253,74.6202.89,134.9484,0.9153,55.468,0.023,108.6704-2.0949,119.4658-4.2576,56.2654-11.2708,43.1175-76.9377,8.6047-88.8684-28.0794-7.5084-35.2615,12.3365-21.9308,14.5491h0ZM163.203,205.8844c-8.02761-2.3511-7.09981-9.1051-4.845-14.7532,9.30589-39.2549-7.231-78.0019-50.51851-81.6317-66.1154-6.0905-89.0859,81.488-38.40049,111.8344,20.94819,13.1275,62.81859,11.3244,76.71869-8.5979-3.7489-2.1501-2.9812-4.2339-12.6721-3.1189C138.96569,202.7707,152.47239,209.9536,163.203,205.8844Z"/><path class="cls-1" d="M81.545,232.9319c-59.45841-14.7771-63.83821-103.3765-2.56471-125.5261a69.66434,69.66434,0,0,1,39.4531-2.5318c8.3013,1.7964,21.4673,6.4844,29.0608,15.0088l242.58949,0.0879c3.865,0.0172,11.6026-1.7174,3.5805-2.5116-15.88018-2.1093-6.4244-18.8915,3.7987-11.925-4.2342,1.514-7.7788,7.4649,1.1699,7.8159,25.873-18.1039,51.421-2.9066,63.53,16.2471,13.9135,22.0074,10.9225,64.9194-25.1209,75.1277,28.0197-6.9293,34.7873-18.4191,36.5307-37.2211,8.59942,7.3516,13.1821,23.4774-3.33958,32.6575,12.93108-1.7749,11.36548,18.2402-2.32372,12.8481,2.8743,2.2173,7.0665,2.7344,8.077,13.5082-1.1355,12.293-18.1346,7.4538-15.0879-1.5818,1.5459-2.1034,3.081-.8375,5.0898.488,3.5226-6.1871-5.9294-14.1005-12.4949-9.8126,0.8144,2.2307.9121,1.3843,2.085,2.8693,2.5342,3.2068,1.9234,10.7797-3.0802,11.1434-7.2008,2.2277-11.3998-10.4602-1.9836-10.3254-2.2773,2.7643-1.4193,3.7128,1.2919,3.5891,5.5802-6.1111-9.6611-8.9856-17.83338-8.8507-20.88842.3449-14.798,8.8403-18.61122,13.1498-9.2957-3.601-7.8719-14.9209-3.25178-15.3381-29.88752-1.193-72.63981-1.1467-118.55391-1.415-45.744-.2674-95.9945,1.5513-123.44309,5.0934-13.82111,3.4981-14.76,12.1462-13.80581,19.3698,0.09981,0.7599-5.6123.4582-7.2374-2.6257-1.8631-3.5347-.212-8.1958-1.0174-7.8643-21.9751,9.043-39.5073,15.2354-66.50739,8.5252h0ZM412.18318,127.3425c-3.75218-13.468,7.9619-8.5505,9.1157-7.5029,7.6865,6.9814-2.9705,19.8593-15.9016,15.6556-4.411-3.1249-5.7556-4.2686-6.9941-10.7686l-246.12889-.2302c2.2925,5.7005,17.4399,21.5811,13.7754,60.8236,12.4942-2.5512,3.4204,15.2003-.0602,4.7536-6.1422,2.3387-3.7903,13.2303,4.99451,14.9663,7.72239,1.526,74.65459.8904,135.01059,0.9157,55.4935,0.0231,108.7205-2.0959,119.5208-4.2595,56.2913-11.2761,43.1374-76.9733,8.60862-88.9094-28.09222-7.5119-35.27772,12.3422-21.94082,14.5558h0ZM163.05259,205.7246c-8.0313-2.3522-7.1031-9.1093-4.8473-14.7599,9.3102-39.2731-7.23429-78.0379-50.5417-81.6695-66.146-6.0932-89.1271,81.5257-38.4183,111.8861,20.9579,13.1335,62.8476,11.3296,76.7542-8.602-3.7507-2.151-2.9827-4.2357-12.678-3.1203C138.80409,202.6095,152.31709,209.7957,163.05259,205.7246Z"/><rect class="cls-2" x="-8.45471" y="-9.0456" width="16.0791" height="356.2152"/><rect class="cls-2" x="504.37558" y="-8.7636" width="16.0791" height="356.2152"/><rect class="cls-2" x="7.62439" y="331.0904" width="496.75119" height="16.0792"/><rect class="cls-2" x="7.62439" y="-9.0456" width="496.75119" height="16.0791"/></svg>